<?xml version="1.0" encoding="UTF-8" standalone="no"?>
<svg
   viewBox="0 0 172 172"
   fill="none"
   data-dietype="20"
   version="1.1"
   id="svg9"
   xmlns="http://www.w3.org/2000/svg"
   xmlns:svg="http://www.w3.org/2000/svg">
  <defs
     id="defs9" />
  <g
     id="g15"
     style="display:none">
    <path
       d="M 86,34.4004 139.75,129 H 32.25 Z"
       fill="#d899bf"
       id="path1" />
    <path
       d="m 86,0 86,34.4 H 0 Z"
       fill="#c466a4"
       id="path2" />
    <path
       d="m 86,172 53.75,-43 H 32.25 Z"
       fill="#9d0068"
       id="path3" />
    <path
       d="M 86,34.4004 139.75,129 172,34.4004 Z"
       fill="#b33581"
       id="path4" />
    <path
       d="M 86,34.4004 32.25,129 0,34.4004 Z"
       fill="#b33581"
       id="path5" />
    <path
       d="M 139.75,129 172,34.4 V 129 Z"
       fill="#870051"
       id="path6" />
    <path
       d="M 32.25,129 0,34.4 V 129 Z"
       fill="#870051"
       id="path7" />
    <path
       d="m 172,129 -86,43 53.75,-43 z"
       fill="#6b0040"
       id="path8" />
    <path
       d="M -3.8147e-6,129 86,172 32.25,129 Z"
       fill="#6b0040"
       id="path9" />
  </g>
  <path
     style="fill:#f16464;fill-opacity:1"
     id="path32"
     d="m 67.032582,101.794 c -0.08225,0.0363 -6.792112,3.96553 -6.879339,3.98738 -0.09278,0.0233 -8.36113,-0.1525 -8.45643,-0.14433 -0.08959,0.008 -7.711701,1.54527 -7.801299,1.53762 -0.0953,-0.008 -7.858583,-2.85909 -7.951372,-2.88231 -0.08723,-0.0218 -7.795609,-1.04244 -7.877869,-1.07877 -0.0875,-0.0386 -6.504436,-5.25586 -6.584658,-5.307949 -0.07542,-0.04897 -7.034741,-3.51719 -7.100749,-3.578258 C 14.310656,94.262427 9.9354325,87.244315 9.8764706,87.169 9.8210382,87.098193 4.3649212,81.558204 4.3223188,81.479012 4.2770038,81.394778 2.4176192,73.336294 2.3863068,73.245915 2.3568688,73.160946 -1.0047894,66.149531 -1.01937,66.060797 c -0.015509,-0.09438 0.84243868,-8.319978 0.84216894,-8.415628 -2.536e-4,-0.08992 -0.90316524,-7.812969 -0.88814374,-7.90163 0.015978,-0.0943 3.4982855,-7.595639 3.5290876,-7.686194 0.028958,-0.08513 1.6826379,-7.682898 1.7256334,-7.761877 0.045733,-0.08401 5.7750389,-6.048196 5.8335748,-6.123842 0.05503,-0.07112 4.086101,-6.720266 4.152412,-6.781006 0.07053,-0.06461 7.425977,-3.845335 7.505904,-3.897876 0.07514,-0.0494 6.046771,-5.029389 6.129211,-5.065306 0.08769,-0.0382 8.272196,-1.225774 8.364852,-1.249516 0.08711,-0.02232 7.35218,-2.7934992 7.441816,-2.8007023 0.09534,-0.00766 8.221993,1.5266196 8.317338,1.5342495 0.08964,0.00717 7.860867,-0.2548906 7.947984,-0.2325989 0.09266,0.023711 7.280811,4.1135797 7.368512,4.1517547 0.08245,0.03589 7.517706,2.31134 7.592865,2.36071 0.07994,0.05251 5.550639,6.254771 5.621193,6.319354 0.06633,0.06072 6.359886,4.6271 6.414942,4.6982 0.05856,0.07563 3.218969,7.718159 3.26473,7.802151 0.04302,0.07896 4.512873,6.441443 4.54186,6.526567 0.03083,0.09054 0.538474,8.345165 0.554484,8.439465 0.01505,0.08866 2.176819,7.557755 2.176596,7.647679 -2.38e-4,0.09565 -2.200372,8.067844 -2.21585,8.162233 -0.01455,0.08874 -0.395125,7.855067 -0.424535,7.940046 -0.03128,0.09039 -4.700774,6.916246 -4.746061,7.000495 -0.04258,0.07921 -2.924252,7.301161 -2.979661,7.371986 -0.05894,0.07533 -6.691775,5.015166 -6.761964,5.080146 -0.06599,0.06109 -5.136491,5.95606 -5.211895,6.005057 -0.0802,0.05212 -7.957618,2.570616 -8.045102,2.609286 z"
     transform="matrix(1.7468536,0,0,1.7409275,1.8252859,-14.561878)" />
</svg>
