<svg viewBox="0 0 172 172" fill="none" data-dietype="12" xmlns="http://www.w3.org/2000/svg"><path d="M34.3999 73.0996L85.9996 30.0996L137.6 73.0996L120.4 129H85.9996H51.5999L34.3999 73.0996Z" fill="#C8D899"></path><path d="M27.95 150.5L86.0001 172L144 150.5L120.4 129H86.0001H51.6L27.95 150.5Z" fill="#4C7001"></path><path d="M0 111.8L27.95 150.5L51.6 129L43 101.05L34.4 73.1L0 60.2V111.8Z" fill="#6B9D00"></path><path d="M172 111.8L144.05 150.5L120.4 129L129 101.05L137.6 73.1L172 60.2V111.8Z" fill="#6B9D00"></path><path d="M0 60.1996L34.4 73.0996L86 30.0996V14.4939V-0.000467682L27.95 21.4996L0 60.1996Z" fill="#ACC466"></path><path d="M172 60.1996L137.6 73.0996L86 30.0996V14.4939V-0.000467682L144.05 21.4996L172 60.1996Z" fill="#ACC466"></path></svg>