<svg viewBox = "0 0 172 172" fill = "none" data-dietype = "20" xmlns = "http://www.w3.org/2000/svg">
	<path d = "M86 34.4004L139.75 129H32.25L86 34.4004Z" fill = "#D899BF"></path>
	<path d = "M86 0L172 34.4H0L86 0Z" fill = "#C466A4"></path>
	<path d = "M86 172L139.75 129H32.25L86 172Z" fill = "#9D0068"></path>
	<path d = "M86 34.4004L139.75 129L172 34.4004H86Z" fill = "#B33581"></path>
	<path d = "M86 34.4004L32.25 129L0 34.4004H86Z" fill = "#B33581"></path>
	<path d = "M139.75 129L172 34.4V129H139.75Z" fill = "#870051"></path>
	<path d = "M32.25 129L0 34.4V129H32.25Z" fill = "#870051"></path>
	<path d = "M172 129L86 172L139.75 129H172Z" fill = "#6B0040"></path>
	<path d = "M-3.8147e-06 129L86 172L32.25 129H-3.8147e-06Z" fill = "#6B0040"></path>
</svg>