<svg width="40" height="40" viewBox="0 0 14 26" fill="none" xmlns="http://www.w3.org/2000/svg">
  <path d="M1.90711 12.9799L13.0907 24.1635C13.2791 24.3676 13.3785 24.6232 13.389 24.9304C13.3995 25.2376 13.3152 25.4927 13.1359 25.6956C12.9253 25.8985 12.6627 26 12.348 26C12.0334 26 11.7826 25.898 11.5957 25.6939L0.729892 14.7692C0.463038 14.5259 0.274682 14.2493 0.164823 13.9393C0.0549411 13.6293 0 13.3115 0 12.9858C0 12.6758 0.0529751 12.3638 0.158925 12.0499C0.264876 11.736 0.455198 11.4417 0.729892 11.167L11.5957 0.301156C11.7905 0.1128 12.0373 0.0127354 12.3363 0.000963152C12.6352 -0.0108091 12.8867 0.0853346 13.0907 0.289395C13.2791 0.493432 13.3733 0.74849 13.3733 1.05457C13.3733 1.36065 13.2791 1.61572 13.0907 1.81978L1.90711 12.9799Z" fill="white"/>
</svg>
