<?xml version="1.0" encoding="UTF-8" standalone="no"?>
<svg
   height="24"
   viewBox="0 -960 960 960"
   width="24"
   version="1.1"
   id="svg1"
   sodipodi:docname="dice.svg"
   inkscape:version="1.3.2 (091e20e, 2023-11-25, custom)"
   xmlns:inkscape="http://www.inkscape.org/namespaces/inkscape"
   xmlns:sodipodi="http://sodipodi.sourceforge.net/DTD/sodipodi-0.dtd"
   xmlns="http://www.w3.org/2000/svg"
   xmlns:svg="http://www.w3.org/2000/svg">
  <defs
     id="defs1" />
  <sodipodi:namedview
     id="namedview1"
     pagecolor="#505050"
     bordercolor="#ffffff"
     borderopacity="1"
     inkscape:showpageshadow="0"
     inkscape:pageopacity="0"
     inkscape:pagecheckerboard="1"
     inkscape:deskcolor="#d1d1d1"
     inkscape:zoom="48.25"
     inkscape:cx="11.989637"
     inkscape:cy="12.683938"
     inkscape:window-width="3440"
     inkscape:window-height="1362"
     inkscape:window-x="-8"
     inkscape:window-y="-8"
     inkscape:window-maximized="1"
     inkscape:current-layer="svg1" />
  <path
     d="m 716.88312,-165.19481 q 32.72727,0 55.32467,-22.5974 22.5974,-22.5974 22.5974,-55.32467 0,-32.72728 -22.5974,-55.32468 -22.5974,-22.5974 -55.32467,-22.5974 -32.72728,0 -55.32468,22.5974 -22.5974,22.5974 -22.5974,55.32468 0,32.72727 22.5974,55.32467 22.5974,22.5974 55.32468,22.5974 z M 480,-402.07792 q 32.72727,0 55.32468,-22.5974 22.5974,-22.59741 22.5974,-55.32468 0,-32.72727 -22.5974,-55.32468 -22.59741,-22.5974 -55.32468,-22.5974 -32.72727,0 -55.32468,22.5974 -22.5974,22.59741 -22.5974,55.32468 0,32.72727 22.5974,55.32468 22.59741,22.5974 55.32468,22.5974 z M 243.11688,-638.96104 q 32.72728,0 55.32468,-22.5974 22.5974,-22.5974 22.5974,-55.32468 0,-32.72727 -22.5974,-55.32467 -22.5974,-22.5974 -55.32468,-22.5974 -32.72727,0 -55.32467,22.5974 -22.5974,22.5974 -22.5974,55.32467 0,32.72728 22.5974,55.32468 22.5974,22.5974 55.32467,22.5974 z M 93.506494,0 Q 52.987013,0 26.493506,-26.493506 0,-52.987013 0,-93.506494 V -866.49351 Q 0,-907.01299 26.493506,-933.50649 52.987013,-960 93.506494,-960 H 866.49351 q 40.51948,0 67.01298,26.49351 Q 960,-907.01299 960,-866.49351 v 772.987016 q 0,40.519481 -26.49351,67.012988 Q 907.01299,0 866.49351,0 Z m 0,-43.636364 H 866.49351 q 18.7013,0 34.28571,-15.584415 15.58442,-15.584416 15.58442,-34.285715 V -866.49351 q 0,-18.7013 -15.58442,-34.28571 -15.58441,-15.58442 -34.28571,-15.58442 H 93.506494 q -18.701299,0 -34.285715,15.58442 -15.584415,15.58441 -15.584415,34.28571 v 772.987016 q 0,18.701299 15.584415,34.285715 15.584416,15.584415 34.285715,15.584415 z M 43.636364,-916.36364 v 872.727276 z"
     id="path1"
     style="stroke-width:1.55844;fill:#ffffff" />
</svg>
