<?xml version="1.0" encoding="UTF-8" standalone="no"?>
<svg
   height="24px"
   viewBox="0 -960 960 960"
   width="24px"
   fill="#ffffff"
   version="1.1"
   id="svg1"
   sodipodi:docname="email.svg"
   inkscape:version="1.3.2 (091e20e, 2023-11-25, custom)"
   xmlns:inkscape="http://www.inkscape.org/namespaces/inkscape"
   xmlns:sodipodi="http://sodipodi.sourceforge.net/DTD/sodipodi-0.dtd"
   xmlns="http://www.w3.org/2000/svg"
   xmlns:svg="http://www.w3.org/2000/svg">
  <defs
     id="defs1" />
  <sodipodi:namedview
     id="namedview1"
     pagecolor="#505050"
     bordercolor="#ffffff"
     borderopacity="1"
     inkscape:showpageshadow="0"
     inkscape:pageopacity="0"
     inkscape:pagecheckerboard="1"
     inkscape:deskcolor="#d1d1d1"
     inkscape:zoom="47.375"
     inkscape:cx="12"
     inkscape:cy="12"
     inkscape:window-width="3440"
     inkscape:window-height="1351"
     inkscape:window-x="-9"
     inkscape:window-y="-9"
     inkscape:window-maximized="1"
     inkscape:current-layer="svg1" />
  <path
     d="m 86.16,-106.66667 q -36.826667,0 -61.493333,-24.66666 Q 0,-156 0,-192.82667 V -767.17333 Q 0,-804 24.666667,-828.66667 49.333333,-853.33333 86.16,-853.33333 h 787.68 q 36.82667,0 61.49333,24.66666 Q 960,-804 960,-767.17333 v 574.34666 q 0,36.82667 -24.66667,61.49334 -24.66666,24.66666 -61.49333,24.66666 z m 820.50667,-646.16 -402.77334,263.69334 q -5.64,2.97333 -11.42666,4.97333 -5.8,2 -12.46667,2 -6.66667,0 -12.46667,-2 -5.78666,-2 -11.42666,-4.97333 L 53.333333,-752.82667 v 560 q 0,14.36 9.226667,23.6 Q 71.8,-160 86.16,-160 h 787.68 q 14.36,0 23.6,-9.22667 9.22667,-9.24 9.22667,-23.6 z M 480,-533.33333 890.25333,-800 H 69.746667 Z M 53.333333,-752.82667 v 11.29334 -43.29334 1.85334 V -800 v 17.02667 -2.72 44.16 -11.29334 V -160 Z"
     id="path1"
     style="stroke-width:1.33333" />
</svg>
