<?xml version="1.0" encoding="UTF-8" standalone="no"?>
<svg
   height="24"
   viewBox="0 -960 960 960"
   width="24"
   version="1.1"
   id="svg1"
   xmlns="http://www.w3.org/2000/svg"
   xmlns:svg="http://www.w3.org/2000/svg">
  <defs
     id="defs1" />
  <path
     d="m 82.758621,-110.34483 q -35.862069,0 -59.310345,-23.44827 Q 0,-157.24138 0,-193.10345 v -573.7931 q 0,-35.86207 23.448276,-59.31035 23.448276,-23.44827 59.310345,-23.44827 H 877.24138 q 35.86207,0 59.31034,23.44827 Q 960,-802.75862 960,-766.89655 v 573.7931 q 0,35.86207 -23.44828,59.31035 -23.44827,23.44827 -59.31034,23.44827 z M 480,-496.55172 q 6.89655,0 12.41379,-2.06897 5.51724,-2.06897 11.03449,-4.82759 l 401.37931,-266.20689 q 6.89655,-4.13793 8.27586,-11.72414 1.37931,-7.58621 -2.75862,-14.48276 -2.75862,-5.51724 -11.03449,-7.58621 -8.27586,-2.06896 -15.17241,2.06897 L 480,-535.17241 75.862069,-801.37931 q -6.896552,-4.13793 -14.482759,-3.44828 -7.586207,0.68966 -11.724138,7.58621 -4.137931,6.89655 -2.75862,15.17241 1.37931,8.27587 8.275862,12.4138 l 401.379306,266.20689 q 5.51725,2.75862 11.03449,4.82759 5.51724,2.06897 12.41379,2.06897 z"
     id="path1"
     style="stroke-width:1.37931;fill:#ffffff" />
</svg>
