<?xml version="1.0" encoding="UTF-8" standalone="no"?>
<svg
   height="24px"
   viewBox="0 -960 960 960"
   width="24px"
   fill="#ffffff"
   version="1.1"
   id="svg1"
   sodipodi:docname="group.svg"
   inkscape:version="1.3.2 (091e20e, 2023-11-25, custom)"
   xmlns:inkscape="http://www.inkscape.org/namespaces/inkscape"
   xmlns:sodipodi="http://sodipodi.sourceforge.net/DTD/sodipodi-0.dtd"
   xmlns="http://www.w3.org/2000/svg"
   xmlns:svg="http://www.w3.org/2000/svg">
  <defs
     id="defs1" />
  <sodipodi:namedview
     id="namedview1"
     pagecolor="#505050"
     bordercolor="#ffffff"
     borderopacity="1"
     inkscape:showpageshadow="0"
     inkscape:pageopacity="0"
     inkscape:pagecheckerboard="1"
     inkscape:deskcolor="#d1d1d1"
     inkscape:zoom="47.375"
     inkscape:cx="11.989446"
     inkscape:cy="12"
     inkscape:window-width="3440"
     inkscape:window-height="1351"
     inkscape:window-x="-9"
     inkscape:window-y="-9"
     inkscape:window-maximized="1"
     inkscape:current-layer="svg1" />
  <path
     d="m 0,-220.94992 q 0,-35.63997 18.463008,-61.15712 18.463007,-25.50441 51.339894,-40.58042 70.388628,-31.74364 133.659438,-49.88832 63.27082,-18.13194 153.38303,-18.13194 90.11221,0 152.96284,18.13194 62.85062,18.14468 133.88864,49.88832 32.22749,15.07601 50.79237,40.58042 18.56487,25.51715 18.56487,61.15712 v 32.01104 q 0,15.75085 -12.93684,30.40666 -12.9241,14.65581 -32.12563,14.65581 H 45.049739 q -18.692204,0 -31.870971,-13.1915 Q 0,-170.24668 0,-188.93888 Z m 914.95026,77.07351 H 799.2445 q 2.71215,-10.91227 5.27151,-21.87548 2.55935,-10.97594 2.55935,-23.18699 V -219.753 q 0,-51.91289 -19.77451,-90.50694 -19.78725,-38.59405 -57.20986,-65.49911 44.29848,8.68398 85.47736,21.82455 41.16614,13.14056 74.98527,29.91007 31.18339,16.43844 50.32125,43.75096 Q 960,-252.97368 960,-219.753 v 30.81412 q 0,18.6922 -13.17877,31.87097 -13.17877,13.1915 -31.87097,13.1915 z M 356.84537,-512.35984 q -63.34721,0 -106.28326,-42.92331 -42.92331,-42.92331 -42.92331,-106.28326 0,-63.35995 42.92331,-105.9522 42.93605,-42.60498 106.28326,-42.60498 63.35995,0 105.9522,42.60498 42.60498,42.59225 42.60498,105.9522 0,63.35995 -42.60498,106.28326 -42.59225,42.92331 -105.9522,42.92331 z m 354.24782,-149.20657 q 0,63.35995 -42.60498,106.28326 -42.59225,42.92331 -106.1814,42.92331 -3.32334,0 -6.65941,-0.53479 -3.33608,-0.54753 -6.55755,-1.61711 24.63856,-29.01875 37.48627,-66.51776 12.84771,-37.48627 12.84771,-80.33318 0,-42.84691 -13.81543,-78.88161 -13.82815,-36.04743 -36.51855,-68.37679 2.86495,-0.4202 6.55755,-0.95499 3.6926,-0.54752 6.55755,-0.54752 63.69101,0 106.28326,42.60498 42.60498,42.59225 42.60498,105.9522 z M 43.08884,-186.97798 h 626.86368 v -33.9592 q 0,-19.55806 -10.40295,-35.13065 -10.39022,-15.57259 -35.24525,-28.66223 -64.44226,-32.74955 -125.14099,-47.81282 -60.69873,-15.06327 -142.31796,-15.06327 -81.61922,0 -142.40709,15.06327 -60.80059,15.06327 -125.242853,47.81282 -24.855029,13.08964 -35.474441,28.66223 -10.632146,15.57259 -10.632146,35.13065 z m 313.4382,-368.48344 q 44.48949,0 75.13808,-30.63586 30.63586,-30.63586 30.63586,-75.13807 0,-44.50222 -30.63586,-75.15081 -30.64859,-30.63586 -75.13808,-30.63586 -44.50221,0 -75.1508,30.63586 -30.63586,30.64859 -30.63586,75.15081 0,44.50221 30.63586,75.13807 30.64859,30.63586 75.1508,30.63586 z m 0,368.48344 z m 0,-474.25737 z"
     id="path1"
     style="stroke-width:1.27331" />
</svg>
