<?xml version="1.0" encoding="UTF-8" standalone="no"?>
<svg
   height="24"
   viewBox="0 -960 960 960"
   width="24"
   version="1.1"
   id="svg1"
   sodipodi:docname="info.svg"
   inkscape:version="1.3.2 (091e20e, 2023-11-25, custom)"
   xmlns:inkscape="http://www.inkscape.org/namespaces/inkscape"
   xmlns:sodipodi="http://sodipodi.sourceforge.net/DTD/sodipodi-0.dtd"
   xmlns="http://www.w3.org/2000/svg"
   xmlns:svg="http://www.w3.org/2000/svg">
  <defs
     id="defs1" />
  <sodipodi:namedview
     id="namedview1"
     pagecolor="#505050"
     bordercolor="#ffffff"
     borderopacity="1"
     inkscape:showpageshadow="0"
     inkscape:pageopacity="0"
     inkscape:pagecheckerboard="1"
     inkscape:deskcolor="#d1d1d1"
     inkscape:zoom="48.25"
     inkscape:cx="11.989637"
     inkscape:cy="12"
     inkscape:window-width="3440"
     inkscape:window-height="1362"
     inkscape:window-x="-8"
     inkscape:window-y="-8"
     inkscape:window-maximized="1"
     inkscape:current-layer="svg1" />
  <path
     d="m 480.04828,-240 q 8.22758,0 13.74482,-5.55172 5.51724,-5.55173 5.51724,-13.75862 v -256.55173 q 0,-8.2069 -5.56551,-13.75862 -5.56552,-5.55172 -13.79311,-5.55172 -8.22758,0 -13.74482,5.55172 -5.51724,5.55172 -5.51724,13.75862 v 256.55173 q 0,8.20689 5.56551,13.75862 Q 471.82069,-240 480.04828,-240 Z M 480,-604.13793 q 11.72414,0 19.65517,-7.93104 7.93104,-7.93103 7.93104,-19.65517 0,-11.72414 -7.93104,-19.65517 -7.93103,-7.93103 -19.65517,-7.93103 -11.72414,0 -19.65517,7.93103 -7.93104,7.93103 -7.93104,19.65517 0,11.72414 7.93104,19.65517 7.93103,7.93104 19.65517,7.93104 z M 480.24,0 Q 380.68966,0 293.02345,-37.78069 205.35586,-75.562759 140.50621,-140.32966 75.657931,-205.09793 37.828966,-292.65379 0,-380.20966 0,-479.76 0,-579.31034 37.78069,-666.97655 75.562759,-754.64414 140.32966,-819.49241 205.09793,-884.34207 292.65379,-922.17103 380.20966,-960 479.76,-960 q 99.55034,0 187.21655,37.78069 87.66759,37.78207 152.51586,102.54897 64.84966,64.76827 102.67862,152.32413 Q 960,-579.79034 960,-480.24 q 0,99.55034 -37.78069,187.21655 -37.78207,87.66759 -102.54897,152.51724 Q 754.90207,-75.657931 667.34621,-37.828966 579.79034,0 480.24,0 Z M 480,-38.62069 q 184.82759,0 313.10345,-128.27586 Q 921.37931,-295.17241 921.37931,-480 q 0,-184.82759 -128.27586,-313.10345 Q 664.82759,-921.37931 480,-921.37931 q -184.82759,0 -313.10345,128.27586 Q 38.62069,-664.82759 38.62069,-480 q 0,184.82759 128.27586,313.10345 Q 295.17241,-38.62069 480,-38.62069 Z M 480,-480 Z"
     id="path1"
     style="stroke-width:1.37931;fill:#ffffff" />
</svg>
