<?xml version="1.0" encoding="UTF-8" standalone="no"?>
<svg
   height="40"
   viewBox="0 -960 960 960"
   width="40"
   version="1.1"
   id="svg1"
   sodipodi:docname="menu.svg"
   inkscape:version="1.3.2 (091e20e, 2023-11-25, custom)"
   xmlns:inkscape="http://www.inkscape.org/namespaces/inkscape"
   xmlns:sodipodi="http://sodipodi.sourceforge.net/DTD/sodipodi-0.dtd"
   xmlns="http://www.w3.org/2000/svg"
   xmlns:svg="http://www.w3.org/2000/svg">
  <defs
     id="defs1" />
  <sodipodi:namedview
     id="namedview1"
     pagecolor="#505050"
     bordercolor="#ffffff"
     borderopacity="1"
     inkscape:showpageshadow="0"
     inkscape:pageopacity="0"
     inkscape:pagecheckerboard="1"
     inkscape:deskcolor="#d1d1d1"
     inkscape:zoom="19.95"
     inkscape:cx="20"
     inkscape:cy="20"
     inkscape:window-width="1920"
     inkscape:window-height="1002"
     inkscape:window-x="-8"
     inkscape:window-y="-8"
     inkscape:window-maximized="1"
     inkscape:current-layer="svg1" />
  <path
     d="m 30.607318,-167.79193 q -12.777826,0 -21.6918434,-9.16325 Q 0,-186.11697 0,-198.33075 q 0,-12.21378 8.9154746,-20.95872 8.9140174,-8.74495 21.6918434,-8.74495 H 930.36483 q 11.829,0 20.73281,8.98397 8.90236,8.98252 8.90236,21.1963 0,12.21378 -8.90236,21.138 -8.90381,8.92422 -20.73281,8.92422 z m 0,-282.75332 q -12.777826,0 -21.6918434,-9.16325 Q 0,-468.87029 0,-481.08407 q 0,-12.21378 8.9154746,-20.95873 8.9140174,-8.74495 21.6918434,-8.74495 H 930.36483 q 11.829,0 20.73281,8.98398 8.90236,8.98252 8.90236,21.1963 0,12.21378 -8.90236,21.138 -8.90381,8.92422 -20.73281,8.92422 z m 0,-282.75333 q -12.777826,0 -21.6918434,-9.16325 Q 0,-751.62362 0,-763.83739 q 0,-12.21378 8.9154746,-20.95873 8.9140174,-8.74495 21.6918434,-8.74495 H 930.36483 q 11.829,0 20.73281,8.98398 8.90236,8.98252 8.90236,21.1963 0,12.21377 -8.90236,21.13799 -8.90381,8.92422 -20.73281,8.92422 z"
     id="path1"
     style="stroke-width:1.45749;fill:#ffffff" />
</svg>
