<?xml version="1.0" encoding="UTF-8" standalone="no"?>
<svg
   height="24"
   viewBox="0 -960 960 960"
   width="24"
   version="1.1"
   id="svg1"
   xmlns="http://www.w3.org/2000/svg"
   xmlns:svg="http://www.w3.org/2000/svg">
  <defs
     id="defs1" />
  <path
     d="M 191.7193,0 Q 157.41667,0 132.98904,-24.427632 108.5614,-48.855263 108.5614,-83.157895 V -548.84211 q 0,-34.30263 24.42764,-58.73026 Q 157.41667,-632 191.7193,-632 h 83.15789 v -110.87719 q 0,-85.92983 59.59649,-145.52632 Q 394.07018,-948 480,-948 q 85.92982,0 145.52632,59.59649 59.59649,59.59649 59.59649,145.52632 V -632 h 83.15789 q 34.30263,0 58.73026,24.42763 24.42764,24.42763 24.42764,58.73026 v 465.684215 q 0,34.302632 -24.42764,58.730263 Q 802.58333,0 768.2807,0 Z M 480,-241.15789 q 31.87719,0 53.35965,-21.48246 21.48246,-21.48246 21.48246,-53.35965 0,-31.87719 -21.48246,-53.35965 -21.48246,-21.48246 -53.35965,-21.48246 -31.87719,0 -53.35965,21.48246 -21.48246,21.48246 -21.48246,53.35965 0,31.87719 21.48246,53.35965 21.48246,21.48246 53.35965,21.48246 z M 313.68421,-632 h 332.63158 v -110.87719 q 0,-69.29825 -48.50877,-117.80702 Q 549.29825,-909.19298 480,-909.19298 q -69.29825,0 -117.80702,48.50877 -48.50877,48.50877 -48.50877,117.80702 z"
     id="path1"
     style="stroke-width:1.38596;fill:#ffffff" />
</svg>
