<?xml version="1.0" encoding="UTF-8" standalone="no"?>
<svg
   height="24px"
   viewBox="0 -960 960 960"
   width="24px"
   fill="#ffffff"
   version="1.1"
   id="svg1"
   sodipodi:docname="password.svg"
   inkscape:version="1.3.2 (091e20e, 2023-11-25, custom)"
   xmlns:inkscape="http://www.inkscape.org/namespaces/inkscape"
   xmlns:sodipodi="http://sodipodi.sourceforge.net/DTD/sodipodi-0.dtd"
   xmlns="http://www.w3.org/2000/svg"
   xmlns:svg="http://www.w3.org/2000/svg">
  <defs
     id="defs1" />
  <sodipodi:namedview
     id="namedview1"
     pagecolor="#505050"
     bordercolor="#ffffff"
     borderopacity="1"
     inkscape:showpageshadow="0"
     inkscape:pageopacity="0"
     inkscape:pagecheckerboard="1"
     inkscape:deskcolor="#d1d1d1"
     showgrid="false"
     inkscape:zoom="33.499184"
     inkscape:cx="14.836182"
     inkscape:cy="12.194327"
     inkscape:window-width="1718"
     inkscape:window-height="1341"
     inkscape:window-x="1712"
     inkscape:window-y="0"
     inkscape:window-maximized="0"
     inkscape:current-layer="svg1" />
  <path
     d="M 192.82667,0 Q 157.02667,0 131.84,-25.173333 106.66667,-50.36 106.66667,-86.16 v -467.68 q 0,-35.8 25.17333,-60.98667 Q 157.02667,-640 192.82667,-640 h 73.84 v -106.66667 q 0,-89.13333 62.10666,-151.22666 Q 390.86667,-960 480,-960 q 89.13333,0 151.22667,62.10667 62.10666,62.09333 62.10666,151.22666 V -640 h 73.84 q 35.8,0 60.98667,25.17333 25.17333,25.18667 25.17333,60.98667 v 467.68 q 0,35.8 -25.17333,60.986667 Q 802.97333,0 767.17333,0 Z m 0,-53.333333 h 574.34666 q 14.36,0 23.6,-9.226667 Q 800,-71.8 800,-86.16 v -467.68 q 0,-14.36 -9.22667,-23.6 -9.24,-9.22667 -23.6,-9.22667 H 192.82667 q -14.36,0 -23.6,9.22667 Q 160,-568.2 160,-553.84 v 467.68 q 0,14.36 9.22667,23.6 9.24,9.226667 23.6,9.226667 z M 480,-240 q 33.74667,0 56.86667,-23.13333 Q 560,-286.25333 560,-320 560,-353.74667 536.86667,-376.86667 513.74667,-400 480,-400 q -33.74667,0 -56.86667,23.13333 Q 400,-353.74667 400,-320 q 0,33.74667 23.13333,56.86667 Q 446.25333,-240 480,-240 Z M 320,-640 H 640 V -746.66667 Q 640,-813.33333 593.33333,-860 546.66667,-906.66667 480,-906.66667 413.33333,-906.66667 366.66667,-860 320,-813.33333 320,-746.66667 Z M 160,-53.333333 V -586.66667 Z"
     id="path1"
     style="stroke-width:1.33333" />
</svg>
