<?xml version="1.0" encoding="UTF-8" standalone="no"?>
<svg
   height="24px"
   viewBox="0 -960 960 960"
   width="24px"
   fill="#ffffff"
   version="1.1"
   id="svg1"
   sodipodi:docname="person.svg"
   inkscape:version="1.3.2 (091e20e, 2023-11-25, custom)"
   xmlns:inkscape="http://www.inkscape.org/namespaces/inkscape"
   xmlns:sodipodi="http://sodipodi.sourceforge.net/DTD/sodipodi-0.dtd"
   xmlns="http://www.w3.org/2000/svg"
   xmlns:svg="http://www.w3.org/2000/svg">
  <defs
     id="defs1" />
  <sodipodi:namedview
     id="namedview1"
     pagecolor="#505050"
     bordercolor="#ffffff"
     borderopacity="1"
     inkscape:showpageshadow="0"
     inkscape:pageopacity="0"
     inkscape:pagecheckerboard="1"
     inkscape:deskcolor="#d1d1d1"
     inkscape:zoom="23.6875"
     inkscape:cx="8.6543536"
     inkscape:cy="4.0738786"
     inkscape:window-width="1718"
     inkscape:window-height="1341"
     inkscape:window-x="1704"
     inkscape:window-y="0"
     inkscape:window-maximized="0"
     inkscape:current-layer="svg1" />
  <path
     d="m 480,-517.6028 q -75.60271,0 -129.441,-53.83831 -53.83831,-53.83829 -53.83831,-129.441 0,-75.60271 53.83831,-129.44101 53.83829,-53.8383 129.441,-53.8383 75.60271,0 129.441,53.8383 53.83831,53.8383 53.83831,129.44101 0,75.60271 -53.83831,129.441 Q 555.60271,-517.6028 480,-517.6028 Z M 52.348286,-139.28377 v -37.12933 q 0,-37.83192 22.024058,-70.79164 22.039338,-32.94445 59.275586,-51.16546 86.47729,-41.46695 173.06148,-62.20806 Q 393.29362,-381.3041 480,-381.3041 q 86.70638,0 173.29059,20.72584 86.58419,20.74111 173.06148,62.20806 37.23625,18.22101 59.27559,51.16546 22.02405,32.95972 22.02405,70.79164 v 37.12933 q 0,26.89624 -18.26684,45.163078 -18.26682,18.282108 -45.17835,18.282108 H 115.79348 q -26.911515,0 -45.178355,-18.282108 -18.266839,-18.266838 -18.266839,-45.163078 z m 61.093094,2.35209 h 733.11724 v -39.48142 q 0,-20.32874 -13.10448,-38.18319 -13.0892,-17.85446 -36.24348,-30.19526 -75.41944,-36.53368 -155.52777,-55.97657 Q 561.57457,-320.21099 480,-320.21099 q -81.57457,0 -161.68289,19.44287 -80.10833,19.44289 -155.52777,55.97657 -23.15428,12.3408 -36.24348,30.19526 -13.10448,17.85445 -13.10448,38.18319 z M 480,-578.6959 q 50.40181,0 86.29401,-35.89221 35.8922,-35.89219 35.8922,-86.294 0,-50.40181 -35.8922,-86.29401 -35.8922,-35.8922 -86.29401,-35.8922 -50.40181,0 -86.29401,35.8922 -35.8922,35.8922 -35.8922,86.29401 0,50.40181 35.8922,86.294 35.8922,35.89221 86.29401,35.89221 z m 0,-122.18621 z m 0,563.95043 z"
     id="path1"
     style="stroke-width:1.52733" />
</svg>
