<?xml version="1.0" encoding="UTF-8" standalone="no"?>
<svg
   height="24"
   viewBox="0 -960 960 960"
   width="24"
   version="1.1"
   id="svg1"
   sodipodi:docname="cached_FILL0_wght100_GRAD0_opsz24.svg"
   inkscape:version="1.3.2 (091e20e, 2023-11-25, custom)"
   xmlns:inkscape="http://www.inkscape.org/namespaces/inkscape"
   xmlns:sodipodi="http://sodipodi.sourceforge.net/DTD/sodipodi-0.dtd"
   xmlns="http://www.w3.org/2000/svg"
   xmlns:svg="http://www.w3.org/2000/svg">
  <defs
     id="defs1" />
  <sodipodi:namedview
     id="namedview1"
     pagecolor="#505050"
     bordercolor="#ffffff"
     borderopacity="1"
     inkscape:showpageshadow="0"
     inkscape:pageopacity="0"
     inkscape:pagecheckerboard="1"
     inkscape:deskcolor="#d1d1d1"
     inkscape:zoom="48.25"
     inkscape:cx="11.989637"
     inkscape:cy="12"
     inkscape:window-width="3440"
     inkscape:window-height="1362"
     inkscape:window-x="-8"
     inkscape:window-y="-8"
     inkscape:window-maximized="1"
     inkscape:current-layer="svg1" />
  <path
     d="m 482.40602,-126.31579 q -147.96993,0 -252.03008,-103.45865 Q 126.31579,-333.23308 126.31579,-480 v -84.21053 l -96.240602,96.24061 q -4.81203,4.81203 -11.428571,5.41353 -6.616542,0.6015 -12.6315794,-5.41353 Q 0,-473.98496 0,-480 q 0,-6.01504 6.0150376,-12.03008 L 117.89474,-603.90977 q 10.82706,-10.82707 25.26315,-10.82707 14.43609,0 25.26316,10.82707 l 111.8797,111.87969 q 4.81203,4.81203 5.41354,11.42858 0.6015,6.61654 -5.41354,12.63158 -6.01504,6.01503 -12.03007,6.01503 -6.01504,0 -12.03008,-6.01503 L 160,-564.21053 V -480 q 0,133.53383 93.83459,226.76692 Q 347.66917,-160 482.40602,-160 q 24.06015,0 48.7218,-3.60902 24.66165,-3.60903 48.7218,-12.03008 7.21805,-2.40601 13.83459,0.60151 6.61654,3.00751 9.02256,9.02255 2.40601,6.01504 -0.60151,12.63158 -3.00752,6.61654 -10.22556,9.02256 -26.46617,9.62406 -54.13534,13.83458 -27.66917,4.21053 -55.33834,4.21053 z M 477.59398,-800 q -24.06015,0 -48.7218,3.60902 -24.66165,3.60903 -48.7218,12.03008 -7.21805,2.40601 -13.83459,-0.60151 -6.61654,-3.00751 -9.02256,-9.02255 -2.40601,-6.01504 0,-12.63158 2.40602,-6.61654 9.62406,-9.02256 26.46617,-9.62406 54.73685,-13.83458 28.27067,-4.21053 55.93984,-4.21053 147.96993,0 252.03008,103.45865 Q 833.68421,-626.76692 833.68421,-480 v 84.21053 l 96.2406,-96.24061 q 4.81203,-4.81203 11.42857,-5.41353 6.61654,-0.6015 12.63158,5.41353 Q 960,-486.01504 960,-480 q 0,6.01504 -6.01504,12.03008 l -111.8797,111.87969 q -10.82706,10.82707 -25.26315,10.82707 -14.43609,0 -25.26316,-10.82707 l -111.8797,-111.87969 q -4.81203,-4.81203 -5.41354,-11.42858 -0.6015,-6.61654 5.41354,-12.63158 6.01504,-6.01503 12.03007,-6.01503 6.01504,0 12.03008,6.01503 L 800,-395.78947 V -480 Q 800,-613.53383 706.16541,-706.76692 612.33083,-800 477.59398,-800 Z"
     id="path1"
     style="stroke-width:1.20301;fill:#ffffff" />
</svg>
