<?xml version="1.0" encoding="UTF-8" standalone="no"?>
<svg
   height="8"
   viewBox="0 0 8 8"
   width="8"
   version="1.1"
   id="svg1"
   sodipodi:docname="magnifying-glass.svg"
   inkscape:version="1.3.2 (091e20e, 2023-11-25, custom)"
   xmlns:inkscape="http://www.inkscape.org/namespaces/inkscape"
   xmlns:sodipodi="http://sodipodi.sourceforge.net/DTD/sodipodi-0.dtd"
   xmlns="http://www.w3.org/2000/svg"
   xmlns:svg="http://www.w3.org/2000/svg">
  <defs
     id="defs1" />
  <sodipodi:namedview
     id="namedview1"
     pagecolor="#505050"
     bordercolor="#ffffff"
     borderopacity="1"
     inkscape:showpageshadow="0"
     inkscape:pageopacity="0"
     inkscape:pagecheckerboard="1"
     inkscape:deskcolor="#d1d1d1"
     inkscape:zoom="99.75"
     inkscape:cx="3.358396"
     inkscape:cy="3.839599"
     inkscape:window-width="1920"
     inkscape:window-height="1002"
     inkscape:window-x="-8"
     inkscape:window-y="-8"
     inkscape:window-maximized="1"
     inkscape:current-layer="svg1" />
  <path
     d="M 3.474262,0.00989789 C 1.5639689,0.00989789 0.01,1.5638668 0.01,3.4741599 c 0,1.910293 1.5539689,3.464262 3.464262,3.464262 0.5839756,0 1.1580533,-0.1385705 1.64305,-0.4058136 A 0.98978915,0.98978915 0 0 0 5.2459845,6.6612809 L 6.2357737,7.6510701 A 1.0095849,1.0095849 0 1 0 7.6610701,6.2257737 L 6.6712809,5.2359845 A 0.98978915,0.98978915 0 0 0 6.5129147,5.107312 C 6.7801577,4.6223153 6.9484219,4.0581355 6.9484219,3.464262 6.9484219,1.5539689 5.3944529,0 3.4841599,0 Z m 0,0.98978915 c 1.3758069,0 2.4744729,1.09866596 2.4744729,2.47447286 0,0.6532609 -0.2375494,1.2570322 -0.6532609,1.7024374 -0.0099,0.0099 -0.019795,0.019795 -0.029694,0.029694 A 0.98978915,0.98978915 0 0 0 5.1371078,5.3349634 C 4.7016006,5.7308791 4.107727,5.9585306 3.4643641,5.9585306 c -1.3758069,0 -2.47447285,-1.0986659 -2.47447285,-2.4744728 0,-1.3758069 1.09866595,-2.4744729 2.47447285,-2.4744729 z"
     id="path1"
     style="stroke-width:0.989789;fill:#ffffff" />
</svg>
