<?xml version="1.0" encoding="UTF-8" standalone="no"?>
<svg
   height="24"
   viewBox="0 -960 960 960"
   width="24"
   version="1.1"
   id="svg1"
   xmlns="http://www.w3.org/2000/svg"
   xmlns:svg="http://www.w3.org/2000/svg">
  <defs
     id="defs1" />
  <path
     d="M 861.38235,-49.914439 679.51604,-231.78075 q -46.10695,23.05348 -96.69652,32.01872 -50.58957,8.96524 -103.10027,8.96524 -146.00535,0 -268.31684,-76.20455 Q 89.090909,-343.20588 13.526738,-467.4385 7.1229947,-477.68449 4.5614973,-487.93048 2,-498.17647 2,-508.42246 q 0,-10.24599 3.2018717,-21.13235 3.2018716,-10.88637 9.6056153,-19.85161 34.580214,-52.51069 73.002673,-100.53877 38.42246,-48.02807 89.65241,-83.88903 L 46.826203,-864.47059 q -5.122994,-5.12299 -5.763369,-12.16711 -0.640374,-7.04412 5.763369,-13.44786 6.403744,-6.40374 12.807487,-6.40374 6.403743,0 12.807486,6.40374 L 886.99733,-75.529412 q 5.12299,5.122995 5.76337,12.167113 0.64037,7.044117 -5.76337,13.44786 -6.40375,6.403744 -12.80749,6.403744 -6.40374,0 -12.80749,-6.403744 z M 479.71925,-334.24064 q 21.77273,0 41.62433,-3.20187 19.85161,-3.20188 37.78209,-14.72861 L 323.46791,-587.82888 q -10.24598,17.93048 -14.08823,37.78209 -3.84225,19.8516 -3.84225,41.62433 0,73.00267 50.58958,123.59225 50.58957,50.58957 123.59224,50.58957 z m 0,-491.80749 q 147.2861,0 270.87834,76.20455 123.59225,76.20454 197.87567,202.99866 5.123,8.96524 8.32487,18.57086 3.20187,9.60561 3.20187,19.8516 0,10.24599 -3.20187,19.8516 -3.20187,9.60562 -8.32487,18.57086 -21.77273,39.70321 -48.66845,74.28342 -26.89572,34.58022 -60.19518,65.31818 -12.80749,12.80749 -30.73797,11.52674 -17.93048,-1.28075 -30.73797,-14.08823 L 662.86631,-446.94652 q -6.40374,-6.40375 -8.96524,-14.08824 -2.5615,-7.68449 -1.28075,-16.64973 1.28075,-7.68449 1.28075,-15.36899 v -15.36898 q 0,-73.00267 -50.58957,-123.59225 -50.58957,-50.58957 -123.59225,-50.58957 -7.68449,0 -14.72861,0.64038 -7.04412,0.64037 -13.44786,1.92112 -8.96524,2.5615 -17.93048,0 -8.96524,-2.5615 -15.36898,-8.96524 l -56.35295,-56.35294 q -17.93048,-17.93048 -12.16711,-42.26471 5.76337,-24.33422 31.37834,-30.73797 24.33423,-5.12299 48.66845,-6.40374 24.33423,-1.28075 49.9492,-1.28075 z m 96.05615,217.72727 q 17.93048,17.93049 28.81685,41.62434 10.88636,23.69385 13.44786,49.30882 1.28075,7.68449 -5.76337,10.88636 -7.04412,3.20187 -13.44786,-3.20187 L 481,-626.25134 q -6.40374,-6.40374 -3.20187,-13.44786 3.20187,-7.04412 10.88636,-7.04412 25.61498,1.28075 47.3877,10.88637 21.77273,9.60561 39.70321,27.53609 z"
     id="path1"
     style="stroke-width:1.28075;fill:#ffffff" />
</svg>
