<?xml version="1.0" encoding="UTF-8" standalone="no"?>
<svg
   height="24"
   viewBox="0 -960 960 960"
   width="24"
   version="1.1"
   id="svg1"
   xmlns="http://www.w3.org/2000/svg"
   xmlns:svg="http://www.w3.org/2000/svg">
  <defs
     id="defs1" />
  <path
     d="m 480.3016,-325.45455 q 72.85348,0 123.54867,-50.99679 50.69518,-50.99807 50.69518,-123.85026 0,-72.85348 -50.99679,-123.54867 -50.99807,-50.69518 -123.85026,-50.69518 -72.85348,0 -123.54867,50.99679 -50.69518,50.99807 -50.69518,123.85026 0,72.85348 50.99679,123.54867 50.99807,50.69518 123.85026,50.69518 z M 480,-361.39037 q -57.75401,0 -98.18182,-40.42781 -40.42781,-40.42781 -40.42781,-98.18182 0,-57.75401 40.42781,-98.18182 40.42781,-40.42781 98.18182,-40.42781 57.75401,0 98.18182,40.42781 40.42781,40.42781 40.42781,98.18182 0,57.75401 -40.42781,98.18182 -40.42781,40.42781 -98.18182,40.42781 z m 0,179.67914 q -146.31016,0 -268.87701,-77.00535 Q 88.55615,-335.72193 11.550802,-460.2139 5.1336898,-470.48128 2.5668449,-480.17241 0,-489.86481 0,-500.06545 q 0,-10.20193 2.5668449,-19.8276 2.5668449,-9.62567 8.9839571,-19.89305 Q 88.55615,-664.27807 211.12299,-741.28342 333.68984,-818.28877 480,-818.28877 q 146.31016,0 268.87701,77.00535 122.56684,77.00535 199.57219,201.49732 6.41711,10.26738 8.98396,19.95851 2.56684,9.6924 2.56684,19.89304 0,10.20193 -2.56684,19.8276 -2.56685,9.62567 -8.98396,19.89305 -77.00535,124.49197 -199.57219,201.49732 Q 626.31016,-181.71123 480,-181.71123 Z"
     id="path1"
     style="stroke-width:1.28342;fill:#ffffff" />
</svg>
